<svg id="Capa_1" enable-background="new 0 0 512 512" height="512" viewBox="0 0 512 512" width="512" xmlns="http://www.w3.org/2000/svg"><g><path d="m512 256c0 141.38-114.62 256-256 256-25.62 0-50.36-3.76-73.7-10.77-71.58-21.48-129.98-73.45-160.11-140.83-14.26-31.88-22.19-67.22-22.19-104.4 0-141.38 114.62-256 256-256s256 114.62 256 256z" fill="#da4a54"/><g><path d="m394.7 349.01-204.23 134.92-8.17 17.3c-71.58-21.48-129.98-73.45-160.11-140.83l22.82-8.81c7.79-3.01 14.43-8.4 18.97-15.41l53.18-82.13c4.84-7.47 14.13-10.64 22.57-7.8 39.51 13.27 72.54 1.43 72.54 1.43l40.97 40.97 1.31 13.4c1.24 12.68 11.9 22.34 24.63 22.34h108.12c13.31 0 18.5 17.29 7.4 24.62z" fill="#454045"/><g><g><path d="m232.615 317.994-48.715-48.716 17.147-16.314 4.647-4.411 21.966-20.897 4.638-4.42 12.881-12.247 9.131-8.623 4.656-4.402 22.048-20.834 4.656-4.402 25.888-24.457 4.656-4.402 25.888-24.457 4.656-4.402 25.888-24.457 17.384-8.448 13.16-20.411 4.656-4.402 45.309-5.254 10.109 22.917c-1.078.643-2.074 1.44-2.935 2.355l-15.779 16.685-4.402 4.656-24.457 25.888-4.402 4.656-24.466 25.879-4.402 4.656-24.466 25.879-4.402 4.656-24.457 25.888-4.402 4.656-20.843 22.039-4.402 4.656-20.834 22.048-4.402 4.656-7.527 7.962-13.343 14.031-4.411 4.647z" fill="#ffbb16"/><path d="m127.55 448.54-16.78 16.78c-.3.3-.62.59-.95.85-28.95-20.16-53.53-46.16-72.04-76.28l15.55-15.56c4.58-4.57 12-4.57 16.58 0l57.64 57.64c4.57 4.58 4.57 12 0 16.57z" fill="#ffbb16"/><path d="m178.55 365.032-41.704-41.704c-3.889-3.889-3.889-10.195 0-14.085l2.59-2.59c3.889-3.889 10.195-3.889 14.085 0l41.704 41.704c3.889 3.889 3.889 10.195 0 14.085l-2.59 2.59c-3.889 3.89-10.195 3.89-14.085 0z" fill="#ffbb16"/><path d="m139.885 403.697-41.704-41.704c-3.889-3.889-3.889-10.195 0-14.085l2.59-2.59c3.889-3.889 10.195-3.889 14.085 0l41.704 41.704c3.889 3.889 3.889 10.195 0 14.085l-2.59 2.59c-3.889 3.89-10.195 3.89-14.085 0z" fill="#ffbb16"/><path d="m382.42 159.728-40.318-40.318 4.656-4.402 40.065 40.064z" fill="#848484"/><path d="m353.552 190.264-41.994-41.994 4.656-4.403 41.74 41.741z" fill="#454045"/><path d="m324.692 220.808-43.678-43.679 4.655-4.402 43.426 43.425z" fill="#454045"/><path d="m299.447 247.503-45.137-45.138 4.656-4.402 44.883 44.884z" fill="#454045"/><path d="m274.211 274.206-46.55-46.55 4.637-4.42 46.315 46.314z" fill="#454045"/><path d="m248.929 300.846-47.881-47.881 4.646-4.412 47.647 47.646z" fill="#454045"/><g fill="#f1f4f6"><g><path d="m439.58 56.56-10.66 10.66-361.69 361.69c-1.44-1.57-2.86-3.16-4.27-4.77l361.18-361.18 10.92-10.92z"/><path d="m429.32 46.31-11.4 11.4-360.21 360.2c-1.37-1.67-2.71-3.35-4.02-5.05l371.09-371.09z"/><path d="m449.85 66.84-372.5 372.5c-1.53-1.48-3.04-2.99-4.54-4.52l372.51-372.51z"/><path d="m460.12 77.1-10.93 10.93-361.15 361.16c-1.62-1.4-3.22-2.83-4.8-4.28l361.67-361.68 10.67-10.67z"/></g><path d="m445.308 76.823-9.82-43.077c-1.013-4.444 1.768-8.869 6.213-9.882 4.444-1.013 8.869 1.768 9.882 6.213l9.82 43.077z"/><path d="m421.284 82.299-9.82-43.077c-1.013-4.444 1.768-8.869 6.213-9.882 4.444-1.013 8.869 1.768 9.882 6.213l9.82 43.077z"/><path d="m397.261 87.776-9.82-43.077c-1.013-4.444 1.768-8.869 6.213-9.882 4.444-1.013 8.869 1.768 9.882 6.213l9.82 43.077z"/><path d="m373.237 93.253-9.82-43.077c-1.013-4.444 1.768-8.869 6.213-9.882 4.444-1.013 8.869 1.768 9.882 6.213l9.82 43.077z"/><path d="m469.332 71.346-9.82-43.077c-1.013-4.444 1.768-8.869 6.213-9.882 4.444-1.013 8.869 1.768 9.882 6.213l9.82 43.077z"/></g><path d="m492.738 89.916-22.726 5.177c-11.477 2.618-19.26 12.828-19.26 24.125 0 1.829.203 3.67.622 5.523 3.037 13.33-5.308 26.6-18.638 29.648l-39.448 8.988c-4.251.969-8.701-.314-11.783-3.397l-39.471-39.471c-1.997-1.997-3.27-4.606-3.627-7.408-3.05-23.886 12.489-46.632 36.443-52.093l105.802-24.113c13.33-3.037 26.6 5.308 29.648 18.638l1.076 4.734c3.037 13.33-5.308 26.6-18.638 29.649z" fill="#454045"/><circle cx="475.152" cy="59.742" fill="#f1f4f6" r="8.254"/><circle cx="451.129" cy="65.219" fill="#f1f4f6" r="8.254"/><circle cx="427.105" cy="70.696" fill="#f1f4f6" r="8.254"/><circle cx="403.081" cy="76.173" fill="#f1f4f6" r="8.254"/><circle cx="379.057" cy="81.649" fill="#f1f4f6" r="8.254"/></g></g></g><circle cx="164.369" cy="465.824" fill="#ffbb16" r="13.967"/></g></svg>