<svg height="512" viewBox="0 0 512 512" width="512" xmlns="http://www.w3.org/2000/svg"><g id="BULINE"><circle cx="256" cy="256" fill="#27273d" r="256"/></g><g id="Icons"><g fill="#32314b"><path d="m240.14 34h-19.34v-1.5a5.17 5.17 0 1 0 -10.33 0v13.34a5.17 5.17 0 0 0 10.33 0v-1.51h19.34a5.16 5.16 0 0 0 5.16-5.16 5.16 5.16 0 0 0 -5.16-5.17z"/><path d="m240.14 72.25h-19.34v-1.51a5.17 5.17 0 0 0 -10.33 0v13.34a5.17 5.17 0 1 0 10.33 0v-1.5h19.34a5.17 5.17 0 0 0 5.16-5.17 5.16 5.16 0 0 0 -5.16-5.16z"/><path d="m270 82.58h19.33v1.5a5.17 5.17 0 1 0 10.33 0v-13.34a5.17 5.17 0 0 0 -10.33 0v1.51h-19.33a5.16 5.16 0 0 0 -5.17 5.16 5.17 5.17 0 0 0 5.17 5.17z"/><path d="m270 44.33h19.33v1.51a5.17 5.17 0 0 0 10.33 0v-13.34a5.17 5.17 0 1 0 -10.33 0v1.5h-19.33a5.16 5.16 0 0 0 -5.17 5.17 5.16 5.16 0 0 0 5.17 5.16z"/></g><path d="m241.39 286.43h-8.39a43.28 43.28 0 0 1 -28.48-10.68l-18.32-16a6.06 6.06 0 0 0 -9.94 3.48c-.1.6 4 26.65 9.73 36.18 1.89 3.17 3.89 8.59 5.85 15a100.34 100.34 0 0 1 -7 76.25c-3.53 6.73-5.84 13.73-5.84 20.34 0 35.79 35.09 64.8 78.38 64.8s78.39-29 78.39-64.8c0-13.83-5.24-26.64-14.17-37.17a51.27 51.27 0 0 1 -10.3-48.37 82 82 0 0 1 7.06-16.14c3.91-6.88-1.74-15.43-9.56-14.24-5.28.81-12 3.8-20.47 11a20.57 20.57 0 0 1 -13.33 4.79 17.64 17.64 0 0 1 -17.63-17.63" fill="#db1b1b"/><path d="m285.33 471.53a92.81 92.81 0 0 1 -28 4.26c-43.29 0-78.38-29-78.38-64.8 0-6.6 2.35-13.6 5.92-20.32a100.34 100.34 0 0 0 7-76.25c-2-6.43-4-11.85-5.85-15-5.68-9.53-9.83-35.58-9.73-36.18a6.06 6.06 0 0 1 9.94-3.48l18.32 16a43.25 43.25 0 0 0 28.45 10.67h2.91a159.79 159.79 0 0 0 -13.61 65.57c0 55.23 26.32 102.2 63.03 119.53z" fill="#bf1b1b"/><path d="m285.62 355v-15a20.52 20.52 0 0 0 -20.52-20.5h-36.61a20.52 20.52 0 0 0 -20.49 20.5v18.57a9.16 9.16 0 0 0 9.16 9.16 18.59 18.59 0 0 1 18.59 18.59 29.66 29.66 0 0 0 29.63 29.68h7.21a36.87 36.87 0 0 0 36.87-36.87v-.29a11.09 11.09 0 0 0 -11.09-11.09 12.75 12.75 0 0 1 -12.75-12.75z" fill="#fff"/><path d="m269.92 356.65h-27.84a4.1 4.1 0 0 1 -4.1-4.17l4.68-242.48h26.68l4.66 242.48a4.1 4.1 0 0 1 -4.08 4.17z" fill="#fab3a7"/><path d="m264.62 21.21h-17.24a5.84 5.84 0 0 0 -5.69 4.51l-11.27 48.08a23.31 23.31 0 0 0 2 16l10.32 20.2h26.52l10.35-20.14a23.31 23.31 0 0 0 2-16l-11.3-48.14a5.84 5.84 0 0 0 -5.69-4.51z" fill="#db1b1b"/><rect fill="#32314b" height="15.5" rx="7.25" width="48" x="232" y="410.75"/><rect fill="#32314b" height="15.5" rx="7.25" width="48" x="232" y="371.25"/><rect fill="#a99bd4" height="19.5" rx="5.37" width="54.53" x="228.73" y="441"/><path d="m245.3 452.25a1.5 1.5 0 0 1 -1.5-1.5v-373.34a1.5 1.5 0 0 1 3 0v373.34a1.5 1.5 0 0 1 -1.5 1.5z" fill="#fff"/><path d="m265.78 452.25a1.5 1.5 0 0 1 -1.5-1.5v-373.34a1.5 1.5 0 1 1 3 0v373.34a1.5 1.5 0 0 1 -1.5 1.5z" fill="#fff"/><path d="m256 452.25a1.5 1.5 0 0 1 -1.5-1.5v-396.75a1.5 1.5 0 0 1 3 0v396.75a1.5 1.5 0 0 1 -1.5 1.5z" fill="#fff"/><circle cx="314.08" cy="432.22" fill="#e24242" r="7.69"/><circle cx="314.08" cy="416.2" fill="#e24242" r="5.45"/></g></svg>